<?xml version="1.0" encoding="UTF-8"?> <svg xmlns="http://www.w3.org/2000/svg" xmlns:xlink="http://www.w3.org/1999/xlink" viewBox="0 0 59.6 59.6"><defs><clipPath id="a"><circle cx="29.85" cy="29.8" r="23.8" fill="none"></circle></clipPath><linearGradient id="b" x1="54.26" y1="54.75" x2="4.98" y2="25.96" gradientUnits="userSpaceOnUse"><stop offset="0" stop-color="#8a8a8a"></stop><stop offset="1" stop-color="#b6b6b6"></stop></linearGradient><linearGradient id="c" x1="39.62" y1="1.21" x2="48.3" y2="23.61" gradientUnits="userSpaceOnUse"><stop offset="0" stop-color="#505050"></stop><stop offset="1" stop-color="#333"></stop></linearGradient></defs><title>code-de-la-route</title><path d="M29.8,6A23.8,23.8,0,1,1,6,29.8,23.83,23.83,0,0,1,29.8,6m0-6A29.8,29.8,0,1,0,59.6,29.8,29.8,29.8,0,0,0,29.8,0Z" fill="#3a98f6"></path><g clip-path="url(#a)"><rect x="4.86" y="25.65" width="50.18" height="29.79" fill="url(#b)"></rect><path d="M26.65,31.4h4l-3.5-1h2.3l5,1.4-2.8,2h-3.2l2.7-1.5h-4.4a5.84,5.84,0,0,0-2.1.3,1.35,1.35,0,0,0-.9,1.2v6.5h-3.9l1.4-6.5a2.69,2.69,0,0,1,1.8-1.8,9.69,9.69,0,0,1,3.6-.6" fill="#fff"></path><polygon points="15.23 28.86 14.48 29.55 16.38 29.55 16.82 28.86 15.23 28.86" fill="#fff"></polygon><polygon points="14.04 33.16 14.81 31.98 11.8 31.98 10.49 33.16 14.04 33.16" fill="#fff"></polygon><polygon points="13.72 30.23 12.76 31.11 15.37 31.11 15.94 30.23 13.72 30.23" fill="#fff"></polygon><polygon points="16.43 27.77 15.84 28.32 17.17 28.32 17.52 27.77 16.43 27.77" fill="#fff"></polygon><polygon points="17.34 26.95 16.89 27.36 17.79 27.36 18.05 26.95 17.34 26.95" fill="#fff"></polygon><polygon points="18.6 25.81 18.33 26.05 18.63 26.05 18.79 25.81 18.6 25.81" fill="#fff"></polygon><polygon points="18.07 26.29 17.7 26.62 18.26 26.62 18.47 26.29 18.07 26.29" fill="#fff"></polygon><rect x="4.58" y="5.15" width="50.19" height="20.5" fill="#94cfff"></rect><polygon points="56.59 37.97 53.5 37.97 32.3 25.66 56.59 25.66 56.59 37.97" fill="#67d4ad"></polygon></g><path d="M48.65,15.28s.35-4,2.33-6.45a31,31,0,0,0-2.33-2.11l-.54.12.08,8Z" fill="#003273" opacity="0.5"></path><path d="M43.33,30.4V25h-1.1a2.89,2.89,0,0,1-2.88-2.88V2.88A2.89,2.89,0,0,1,42.23,0h3.53a2.9,2.9,0,0,1,2.89,2.88V22.13A2.9,2.9,0,0,1,45.76,25h-1V30.4Z" fill="url(#c)"></path><circle cx="44" cy="4.74" r="3" fill="#ff4638"></circle><circle cx="44" cy="12.36" r="3" fill="#ffa12b"></circle><circle cx="44" cy="19.89" r="3" fill="#17d18f"></circle><path d="M3.87,42H9.36a21.7,21.7,0,0,1-2.44-5.56Z" fill="#003273" opacity="0.5"></path><polygon points="8.3 35.15 2.48 40.44 9.36 40.44 12.76 35.15 8.3 35.15" fill="#fff"></polygon><path d="M52.21,37.85,56.28,42l-6,0A25.93,25.93,0,0,0,52.21,37.85Z" fill="#003273" opacity="0.5"></path><polygon points="57.17 40.8 50.9 40.8 31.3 25.7 31.8 25.7 57.17 40.8" fill="#fff"></polygon></svg> 